Coordinates
version=1
nRows=12
nColumns=33
inDegrees=yes

Units are S.I. units (second, meters, Newtons, ...)
Angles are in degrees.

endheader
time	ground_thorax_rot_x	ground_thorax_rot_y	ground_thorax_rot_z	ground_thorax_tx	ground_thorax_ty	ground_thorax_tz	clav_prot_r	clav_elev_r	scapula_abduction_r	scapula_elevation_r	scapula_upward_rot_r	scapula_winging_r	shoulder_elv_r	plane_of_elev_r	axial_rot_r	elbow_flexion_r	pro_sup_r	wrist_flex_r	wrist_dev_r	clav_prot_l	clav_elev_l	scapula_abduction_l	scapula_elevation_l	scapula_upward_rot_l	scapula_winging_l	shoulder_elv_l	plane_of_elev_l	axial_rot_l	elbow_flexion_l	pro_sup_l	wrist_flex_l	wrist_dev_l	
1.8600	1.104323	-1.335997	-7.834736	-0.082754	1.050858	0.001637	-13.934423	-3.561261	-12.005220	-0.171633	13.037326	-2.456181	64.503700	-47.195289	70.431872	79.146595	11.969313	20.106608	13.908274	-7.811200	-2.039779	6.668447	-4.890425	-0.351270	-0.116858	62.405571	-56.700084	-49.291621	76.728285	0.806952	0.372549	-24.963996	
1.8700	1.078536	-1.321196	-7.832009	-0.082664	1.050952	0.001642	-13.918213	-3.442608	-11.866943	-0.143566	13.283664	-2.557128	64.941567	-46.908561	70.506632	80.243250	11.577096	20.029902	14.071623	-7.827782	-1.979825	6.621175	-4.862361	-0.128217	-0.053420	62.505774	-56.361769	-49.177464	77.581226	-0.737713	0.507176	-24.935590	
1.8800	1.052662	-1.293587	-7.830873	-0.082601	1.051004	0.001640	-13.893213	-3.332209	-11.726720	-0.113452	13.501966	-2.649356	65.304918	-46.608907	70.467138	81.281279	11.007894	19.906589	14.223541	-7.828648	-1.926985	6.557544	-4.840947	0.060462	0.004954	62.487429	-55.903985	-48.943999	78.336205	-2.503472	0.583363	-24.884391	
1.8900	1.029094	-1.257243	-7.829539	-0.082551	1.051033	0.001633	-13.863684	-3.242637	-11.583576	-0.095381	13.701375	-2.730988	65.607167	-46.303933	70.331367	82.259836	10.317341	19.747591	14.372850	-7.819963	-1.905775	6.480387	-4.802029	0.219660	0.053929	62.371556	-55.349093	-48.607952	78.991999	-4.400003	0.609385	-24.793560	
1.9000	1.013697	-1.220118	-7.838151	-0.082519	1.051045	0.001616	-13.826790	-3.178586	-11.434504	-0.091762	13.876557	-2.799875	65.850956	-45.973879	70.094407	83.171200	9.479281	19.538754	14.520159	-7.804404	-1.922074	6.400211	-4.746113	0.333261	0.086703	62.134485	-54.676289	-48.140202	79.529505	-6.492246	0.572303	-24.628397	
1.9100	0.995558	-1.182548	-7.860499	-0.082495	1.051046	0.001589	-13.786151	-3.147349	-11.282346	-0.110085	14.030451	-2.854106	66.004210	-45.621028	69.738988	83.992285	8.558037	19.318264	14.626541	-7.785684	-1.982219	6.317428	-4.663231	0.412615	0.104187	61.807162	-53.898014	-47.550281	79.967075	-8.555296	0.461029	-24.339403	
1.9200	0.987691	-1.142706	-7.893709	-0.082482	1.051056	0.001550	-13.741967	-3.156943	-11.132066	-0.153921	14.151716	-2.888188	66.103003	-45.243426	69.282393	84.734619	7.534670	19.052218	14.703534	-7.764483	-2.100845	6.236273	-4.545721	0.442575	0.099075	61.393975	-53.007937	-46.851227	80.280663	-10.713296	0.307306	-23.909451	
1.9300	0.971565	-1.098552	-7.927782	-0.082479	1.051050	0.001501	-13.693273	-3.199883	-10.983037	-0.217236	14.242148	-2.905019	66.099094	-44.846317	68.710705	85.371010	6.482007	18.786204	14.705159	-7.737023	-2.265944	6.146841	-4.399004	0.438029	0.078951	60.942955	-52.033546	-46.059003	80.507217	-12.676239	0.115275	-23.297007	
1.9400	0.953878	-1.047595	-7.960984	-0.082485	1.051039	0.001440	-13.640591	-3.275318	-10.835171	-0.300060	14.304124	-2.905247	65.992512	-44.430528	68.028588	85.890308	5.410525	18.523497	14.629393	-7.701785	-2.485408	6.044417	-4.215563	0.400246	0.042390	60.463801	-50.985405	-45.185420	80.632968	-14.411257	-0.096022	-22.532518	
1.9500	0.920303	-0.991477	-7.982295	-0.082531	1.050979	0.001363	-13.574097	-3.368536	-10.683223	-0.384910	14.323943	-2.891021	65.751055	-43.983575	67.226741	86.277076	4.277990	18.248765	14.467166	-7.643125	-2.726924	5.912199	-4.027536	0.321687	-0.001599	59.972743	-49.870359	-44.226128	80.678077	-15.926868	-0.297884	-21.583683	
1.9600	0.882055	-0.926385	-7.989801	-0.082616	1.050900	0.001272	-13.496061	-3.481277	-10.532685	-0.472427	14.298476	-2.860497	65.389860	-43.500910	66.317382	86.522358	3.020410	17.935106	14.248523	-7.556478	-2.997248	5.742470	-3.830499	0.198448	-0.054306	59.465649	-48.693935	-43.195928	80.610446	-17.381625	-0.455146	-20.511337	
1.9700	0.830583	-0.861265	-7.979483	-0.082757	1.050773	0.001165	-13.400548	-3.603487	-10.379015	-0.551919	14.222288	-2.816249	64.889849	-42.957438	65.305778	86.607946	1.605787	17.577087	13.975361	-7.437472	-3.274190	5.534224	-3.645416	0.028038	-0.110883	58.947387	-47.464373	-42.086846	80.446552	-18.786286	-0.559630	-19.297021	
